<svg width="1024" height="1024" viewBox="0 0 1024 1024" fill="none" xmlns="http://www.w3.org/2000/svg">
<g clip-path="url(#clip0)">
<rect width="1024" height="1024" rx="512" fill="#424242"/>
<path d="M971.253 1024.28C976.873 1026.73 975.629 1035.04 969.537 1035.74L772.774 1058.3C768.852 1058.75 765.573 1055.35 766.157 1051.45L781.395 949.687C781.98 945.783 786.11 943.498 789.728 945.076L971.253 1024.28Z" fill="#69C667"/>
<path d="M210.201 797.086C210.201 797.086 475.414 126.557 497.769 169.988C520.124 213.419 523.381 254.693 528.046 271.486C599.312 278.353 652.122 295.421 680.898 316.535C694.74 301.668 710.793 270.47 753.03 236.339C795.267 202.208 691.743 887.826 691.743 887.826L210.201 797.086Z" fill="white"/>
<path d="M510.868 460.604C509.148 480.063 514.45 510.088 549.421 474.515C551.025 493.44 561.346 522.899 589.801 489.326" stroke="#E0E0E0" stroke-width="12"/>
<path d="M181.317 605.771C180.885 571.679 242.246 509.47 232.775 401.032C222.517 336.319 264.149 341.889 273.524 364.184C282.9 386.48 283.843 429.582 279.146 471.146C274.106 515.739 249.319 560.771 251.317 587.271C253.316 613.771 251.317 633.271 228.206 653.831C205.095 674.392 181.75 639.862 181.317 605.771Z" fill="white"/>
<circle cx="334" cy="1066" r="512" fill="#69C667"/>
</g>
<defs>
<clipPath id="clip0">
<rect width="1024" height="1024" rx="512" fill="white"/>
</clipPath>
</defs>
</svg>
